<svg xmlns="http://www.w3.org/2000/svg" viewBox="0 0 193.54 192.75"><defs><style>.cls-1,.cls-4{fill:#3c3939;}.cls-1{stroke:#373838;stroke-miterlimit:10;}.cls-1,.cls-3{stroke-width:3px;}.cls-1,.cls-2,.cls-5{fill-rule:evenodd;}.cls-2{fill:#daa854;}.cls-3{fill:none;stroke:#383838;stroke-linecap:square;stroke-linejoin:round;}.cls-5{fill:#009de1;}.cls-6{fill:#373838;}.cls-7{fill:#211815;}.cls-8{fill:#5cafdd;}</style></defs><title>资源 8</title><g id="图层_2" data-name="图层 2"><g id="图层_1-2" data-name="图层 1"><path class="cls-1" d="M192,177.41V50.4c0-.34,0-.67,0-1V40.45a5.38,5.38,0,0,0-5.38-5.38H6.92a5.38,5.38,0,0,0-5.37,5.38v8.69c0,.34-.05.68-.05,1V181.57H192v-4.16Zm-168.92,0h-.7a7.68,7.68,0,1,1,.7,0Zm36.62,0H59a7.69,7.69,0,1,1,.7,0Zm36.63,0h-.7a7.68,7.68,0,1,1,.7,0Zm36.63,0h-.7a7.68,7.68,0,1,1,.7,0Zm36.62,0h-.7a7.69,7.69,0,1,1,.7,0Z"/><path class="cls-2" d="M192,179.74c0-2.16-3.87-1.6-8.65-1.6H10.15c-4.78,0-8.65-.51-8.65,1.65v7.56c0,2.15,3.87,3.9,8.65,3.9H183.39c4.78,0,8.65-1.75,8.65-3.9Z"/><path class="cls-3" d="M1.5,175.71v10.68c0,2.68,3.87,4.86,8.65,4.86H183.39c4.78,0,8.65-2.18,8.65-4.86V175.65"/><rect class="cls-4" x="11.35" y="173.12" width="1.64" height="17.66"/><rect class="cls-4" x="32.55" y="173.12" width="1.64" height="17.66"/><rect class="cls-4" x="40.26" y="173.59" width="1.64" height="17.66"/><rect class="cls-4" x="76.97" y="173.59" width="1.64" height="17.66"/><rect class="cls-4" x="113.54" y="173.59" width="1.64" height="17.66"/><rect class="cls-4" x="150.09" y="173.59" width="1.64" height="17.66"/><rect class="cls-4" x="47.98" y="173.59" width="1.64" height="17.66"/><rect class="cls-4" x="84.47" y="173.59" width="1.64" height="17.66"/><rect class="cls-4" x="121.25" y="173.59" width="1.64" height="17.66"/><rect class="cls-4" x="157.85" y="173.59" width="1.64" height="17.66"/><rect class="cls-4" x="69.17" y="173.59" width="1.64" height="17.66"/><rect class="cls-4" x="105.81" y="173.59" width="1.64" height="17.66"/><rect class="cls-4" x="142.45" y="173.59" width="1.64" height="17.66"/><rect class="cls-4" x="179.06" y="173.59" width="1.64" height="17.66"/><path class="cls-2" d="M20.9,159.74A10.09,10.09,0,0,0,13,169.8v12.72c0-.92,2.58,2.87,6.69,4.14,6.71,2.07,12.88-9.6,12.88-9.31v-8A9.8,9.8,0,0,0,20.9,159.74Zm1.87,17.61a7.69,7.69,0,1,1,7.68-7.69A7.69,7.69,0,0,1,22.77,177.35Z"/><path class="cls-2" d="M59.39,159.57a9.78,9.78,0,0,0-9.78,9.78v8c0,5.4,4.38,7.27,9.78,7.27s9.79-1.87,9.79-7.27v-8A9.78,9.78,0,0,0,59.39,159.57Zm0,17.78a7.69,7.69,0,1,1,7.69-7.69A7.68,7.68,0,0,1,59.39,177.35Z"/><path class="cls-2" d="M95.89,159.57a9.78,9.78,0,0,0-9.78,9.78v8c0,5.4,4.38,7.27,9.78,7.27s9.78-1.87,9.78-7.27v-8A9.78,9.78,0,0,0,95.89,159.57ZM96,177.35a7.69,7.69,0,1,1,7.68-7.69A7.69,7.69,0,0,1,96,177.35Z"/><path class="cls-2" d="M132.65,159.57a9.79,9.79,0,0,0-9.79,9.78v8c0,5.4,4.39,7.27,9.79,7.27s9.78-1.87,9.78-7.27v-8A9.78,9.78,0,0,0,132.65,159.57Zm0,17.78a7.69,7.69,0,1,1,7.68-7.69A7.69,7.69,0,0,1,132.65,177.35Z"/><path class="cls-2" d="M169.27,159.57a9.78,9.78,0,0,0-9.78,9.78v8c0,5.4,4.38,7.27,9.78,7.27s9.79-1.87,9.79-7.27v-8A9.79,9.79,0,0,0,169.27,159.57Zm0,17.78a7.69,7.69,0,1,1,7.69-7.69A7.68,7.68,0,0,1,169.27,177.35Z"/><path class="cls-5" d="M186.36,21.45h-60.1L138.78,8.92a4.35,4.35,0,0,0-6.14-6.15L116,19.37a4.33,4.33,0,0,0-1.14,2.08H78.64a4.33,4.33,0,0,0-1.14-2.08L60.9,2.77a4.35,4.35,0,0,0-6.15,6.15L67.28,21.45H7.18A5.67,5.67,0,0,0,1.5,27.12V152a5.67,5.67,0,0,0,5.68,5.67H186.36A5.68,5.68,0,0,0,192,152V27.12A5.68,5.68,0,0,0,186.36,21.45ZM91.66,148.66a1,1,0,0,1-2,0v-3.33a1,1,0,0,1,2,0Zm3,1.94a.87.87,0,0,1-.86.86h-.27a.87.87,0,0,1-.87-.86v-7.15a.87.87,0,0,1,.87-.87h.27a.87.87,0,0,1,.86.87Zm3.12,1.63a1.07,1.07,0,0,1-2.13,0V141.77a1.07,1.07,0,1,1,2.13,0Zm3-1.63a.87.87,0,0,1-.87.86h-.27a.87.87,0,0,1-.87-.86v-7.15a.87.87,0,0,1,.87-.87H100a.87.87,0,0,1,.87.87Zm3-1.94a1,1,0,0,1-2,0v-3.33a1,1,0,0,1,2,0Z"/><path class="cls-6" d="M186.36,159.12H7.18A7.18,7.18,0,0,1,0,152V27.12A7.18,7.18,0,0,1,7.18,20H63.66l-10-10A5.85,5.85,0,0,1,62,1.71l16.6,16.6A5.49,5.49,0,0,1,79.7,20h34.13A5.88,5.88,0,0,1,115,18.31l16.61-16.6a5.85,5.85,0,0,1,8.27,0,5.85,5.85,0,0,1,0,8.27l-10,10h56.48a7.18,7.18,0,0,1,7.18,7.17V152A7.18,7.18,0,0,1,186.36,159.12ZM7.18,23A4.18,4.18,0,0,0,3,27.12V152a4.18,4.18,0,0,0,4.18,4.17H186.36a4.18,4.18,0,0,0,4.18-4.17V27.12A4.18,4.18,0,0,0,186.36,23H122.63L137.72,7.86a2.85,2.85,0,0,0-4-4l-16.61,16.6a2.87,2.87,0,0,0-.74,1.36L116.08,23H77.45l-.27-1.16a2.71,2.71,0,0,0-.74-1.36L59.84,3.83a2.85,2.85,0,0,0-4,4L70.9,23Z"/><rect class="cls-7" x="25.42" y="42.23" width="142.7" height="94.61" rx="4.09"/><rect class="cls-8" x="7.82" y="114.89" width="13.63" height="2.22" rx="1.11"/><rect class="cls-8" x="8.15" y="119.58" width="13.63" height="2.22" rx="1.11" transform="translate(-26.26 6.28) rotate(-12.74)"/><rect class="cls-8" x="7.82" y="110.24" width="13.63" height="2.22" rx="1.11" transform="translate(18.42 -0.89) rotate(9.42)"/><rect class="cls-8" x="172.08" y="114.89" width="13.63" height="2.22" rx="1.11" transform="translate(357.8 232) rotate(180)"/><rect class="cls-8" x="171.75" y="119.58" width="13.63" height="2.22" rx="1.11" transform="translate(326.11 277.8) rotate(-167.26)"/><rect class="cls-8" x="172.08" y="110.24" width="13.63" height="2.22" rx="1.11" transform="matrix(-0.99, 0.16, -0.16, -0.99, 373.61, 191.91)"/></g></g></svg>